<svg xmlns="http://www.w3.org/2000/svg" viewBox="0 0 125.33 125.08"><defs><style>.cls-1{fill:#fff;}</style></defs><title>Ativo 1</title><g id="Camada_2" data-name="Camada 2"><g id="Camada_1-2" data-name="Camada 1"><path d="M62.72,125.08C28.88,125.13.67,97.37,0,64.64-.66,31.22,25,.42,62.7,0c35-.39,62.59,28.26,62.63,64.12C125.36,97.3,96.87,125,62.72,125.08Zm-.46-8c29.74.28,54.25-23.61,55.17-52.48C118.33,36.41,96.36,8.71,63.67,8,34.23,7.38,9.18,31.58,8.05,59.66,6.74,92.41,33.5,117.57,62.26,117.07Z"/><path class="cls-1" d="M62.26,117.07c-28.76.5-55.52-24.66-54.21-57.41C9.18,31.58,34.23,7.38,63.67,8c32.69.7,54.66,28.4,53.76,56.58C116.51,93.46,92,117.35,62.26,117.07ZM83.81,85.12a23.77,23.77,0,0,0,24-23.58c.25-13.14-10.7-24-24.11-24a23.78,23.78,0,0,0,.09,47.55Z"/><path d="M83.81,85.12a23.78,23.78,0,0,1-.09-47.55c13.41,0,24.36,10.83,24.11,24A23.77,23.77,0,0,1,83.81,85.12ZM94.08,47.66c-3.46.41-5.62,2.29-5.78,6a6.08,6.08,0,0,0,6.22,6.23,6.17,6.17,0,0,0,5.94-6.54C100.09,49.7,97.9,47.82,94.08,47.66Z"/><path class="cls-1" d="M94.08,47.66c3.82.16,6,2,6.38,5.7a6.17,6.17,0,0,1-5.94,6.54,6.08,6.08,0,0,1-6.22-6.23C88.46,50,90.62,48.07,94.08,47.66Z"/></g></g></svg>