<svg xmlns="http://www.w3.org/2000/svg" viewBox="0 0 348.48 382.42"><defs><style>.cls-1{fill:#030202;}.cls-2{fill:#d2d2d2;}.cls-3{fill:#f8c33f;}.cls-4{fill:#f8c43f;}.cls-5{fill:#f9dd96;}.cls-6{fill:#596a95;}.cls-7{fill:#8f7262;}.cls-8{fill:#8e7262;}.cls-9{fill:#ebebeb;}.cls-10{fill:#8f7263;}.cls-11{fill:#050505;}.cls-12{fill:#030201;}.cls-13{fill:#f5d993;}</style></defs><title>favicon</title><g id="Camada_2" data-name="Camada 2"><g id="Camada_1-2" data-name="Camada 1"><path class="cls-1" d="M270,.39A8.79,8.79,0,0,1,272.65,0h43c3.14.15,4.9.39,7.47.72,13.72,1.71,24.17,10.23,24.56,24,.44,15.83.59,31.66.79,47.5a22.83,22.83,0,0,1-4.32,14,8.74,8.74,0,0,0-1.67,5.51c.06,24.68,0,49.37,0,74.06,0,15.74-1,31.46-4.69,46.76Q307.37,340.24,182.48,381.08a26.55,26.55,0,0,1-16.65,0,222,222,0,0,1-91.15-52.83c-1.9-1.82-2.92-2.19-4.89,0a138.74,138.74,0,0,1-11.71,11.55c-8.85,7.69-19.25,10.37-30.64,7.75A35,35,0,0,1,9.84,289c5.91-6.25,12.09-12.24,18.24-18.26,1.53-1.49,2-2.62.94-4.75C13,233.73,5.77,199.51,5.89,163.56c.16-48.5,0-97,0-145.51,0-8.69,2-10.71,10.84-10.71q119,0,237.91,0c1.44,0,3,.3,4.3-.58C262.62,4.25,266.09,1.62,270,.39ZM174.37,234l1.35.41c3.52-3.61,7-7.25,10.57-10.82Q257.57,152.3,328.88,81.05c2.77-2.76,4.7-5.67,4.61-9.77C333.18,56.2,333,41.11,332.7,26c-.14-6.58-3.76-10.13-10.29-10.26-14.83-.28-29.67-.44-44.5-.79a12.84,12.84,0,0,0-10,4.05q-76,76.08-152,152.12c-.62.63-1.79,1-1.47,2.38,15,.35,29.93.62,44.88,1.13a7.91,7.91,0,0,0,6.51-2.58q55.88-56,111.86-111.91a34.73,34.73,0,0,1,2.7-2.59A7.45,7.45,0,0,1,291,67.92a37.85,37.85,0,0,1-3.08,3.26Q232.1,127,176.24,182.76a7.82,7.82,0,0,0-2.53,6.54c.38,8.47.52,16.95.64,25.43C174.45,221.15,174.37,227.58,174.37,234Zm69-211.65h-3.47q-107.73,0-215.46-.07c-3.16,0-3.57,1.08-3.57,3.81Q21,96.6,21,167.1a208.26,208.26,0,0,0,7.53,55.74,193.79,193.79,0,0,0,13.05,34.59c5.91-6,11.42-11.71,17.14-17.24,1.87-1.82,2.21-3.25,1.21-5.75a177.68,177.68,0,0,1-12.81-66c-.11-22.69,0-45.38,0-68.07,0-6.16,2.66-8.84,8.83-9.11a35.3,35.3,0,0,0,34-32.94c.66-8.16,2.54-9.91,10.68-9.91H213.92c1.71,0,3.33.18,4.8-1.32C226.65,39,234.7,31.06,243.39,22.35Zm84.11,81.29c-8.82,8.84-16.89,17-25,25-1.16,1.15-1.06,2.42-1.06,3.76,0,6.11,0,12.22,0,18.33.08,16.2.41,32.44-2.87,48.42Q277.33,302.61,178.27,339.33a11.67,11.67,0,0,1-8.31-.07,180.08,180.08,0,0,1-66.25-40.11c-2-1.9-3-2-4.88,0-4.41,4.75-9,9.36-13.75,13.74-2.17,2-1.79,3,.14,4.79a207.3,207.3,0,0,0,85.68,49.1,11,11,0,0,0,6.53.06c49.11-14.57,87.94-43.16,116.14-85.86,20-30.33,31-63.82,33.37-100.14,1-15.07.42-30.15.54-45.23C327.57,125.33,327.5,115,327.5,103.64Zm-41.35,41.89a3.81,3.81,0,0,0-.86.39Q232.63,198.54,180,251.12c-1.47,1.47-.89,2.13.21,3.21,3.65,3.57,7.26,7.2,10.85,10.84,5.35,5.42,4.66,10.47-2,14.07q-16.57,9-33.18,17.88c-5,2.68-7.61,2.28-11.66-1.74-6.1-6.07-12.24-12.09-18.21-18.29-1.82-1.88-3-2.48-4.91-.14A64,64,0,0,1,114,284.1c-1.85,1.62-1.74,2.56,0,4.23A168.68,168.68,0,0,0,171.77,324a6.63,6.63,0,0,0,5,0q69.39-26.34,97.83-94.87C285.63,202.32,287.44,174.27,286.15,145.53ZM202,64.53l-.67-1.06q-47.28,0-94.57,0c-2.07,0-2.41,1-2.78,2.62-5,21.18-18.31,34.23-39.39,39.27-2.39.57-2.57,1.59-2.56,3.51,0,20.07,0,40.14.07,60.21,0,.71-.54,1.69.51,2.22a2.35,2.35,0,0,0,.28-.33c2.2-4,4.36-8.09,6.6-12.1,3.21-5.75,8.4-6.54,13.18-2,3.51,3.36,7.06,6.71,10.28,10.34,2.13,2.39,3.32,2.45,5.69.07q50.08-50.39,100.42-100.53A24.81,24.81,0,0,1,202,64.53ZM174.21,270.19a5.63,5.63,0,0,0-.54-1Q127,222.46,80.35,175.74c-1.58-1.58-2.28-1.24-3.19.52-2.93,5.64-5.83,11.3-9,16.81-1.42,2.49-1.14,4,.92,6.06,12.88,12.68,25.62,25.52,38.4,38.3q21,21,42.08,42c1.05,1,1.9,2.9,4,1.79Zm-110,42.06a20.11,20.11,0,0,0,1.75-1.37c5.3-5.27,10.53-10.61,15.9-15.82,1.56-1.52,1.4-2.48-.06-3.93q-12.37-12.21-24.58-24.59c-1.5-1.53-2.38-1.5-3.84,0Q45.79,274.35,38,281.89c-1.75,1.68-1.79,2.73,0,4.47,8.11,7.92,16.07,16,24.1,24C62.69,311,63.35,311.52,64.16,312.25Zm48.12-48.56c-.3-.37-.64-.89-1.06-1.32C102.78,253.91,94.3,245.5,85.91,237c-1.44-1.46-2.21-.79-3.28.3-4.9,5-9.81,9.91-14.8,14.78-1.41,1.37-1.78,2.32-.17,3.91q12.51,12.3,24.82,24.8c1.38,1.39,2.23,1.41,3.6,0,4.85-5,9.83-9.88,14.75-14.82C111.43,265.36,112.2,264.85,112.28,263.69Zm46.51-31.19c0-13.2,0-27,0-40.72,0-2.66-1.75-2.21-3.28-2.25q-19.22-.5-38.44-.92c-.64,0-1.53-.46-1.81.39ZM14.73,313.62a50.17,50.17,0,0,0,1.57,6.48c2.93,7.62,8.46,12.06,16.65,13.07s14.3-2.95,19.49-8.8c1.14-1.28.31-2-.5-2.78L26.87,296.51c-1-1-1.75-1.59-3.1-.36C18.6,300.85,15,306.29,14.73,313.62Z"/><path class="cls-2" d="M174.37,234c0-6.42.08-12.85,0-19.27-.12-8.48-.26-17-.64-25.43a7.82,7.82,0,0,1,2.53-6.54Q232.15,127,287.9,71.18A37.85,37.85,0,0,0,291,67.92a7.45,7.45,0,0,0-10.63-10.34,34.73,34.73,0,0,0-2.7,2.59Q221.7,116.1,165.79,172.08a7.91,7.91,0,0,1-6.51,2.58c-14.95-.51-29.91-.78-44.88-1.13-.32-1.36.85-1.75,1.47-2.38q76-76.07,152-152.12a12.84,12.84,0,0,1,10-4.05c14.83.35,29.67.51,44.5.79,6.53.13,10.15,3.68,10.29,10.26.32,15.08.48,30.17.79,45.25.09,4.1-1.84,7-4.61,9.77q-71.33,71.23-142.59,142.54c-3.56,3.57-7,7.21-10.57,10.82Zm134-187c.05-4.46-2.73-7.44-7-7.51A7,7,0,0,0,294,46.69c-.13,4.44,3,7.81,7.22,7.81S308.29,51.38,308.33,47Z"/><path class="cls-3" d="M243.39,22.35C234.7,31.06,226.65,39,218.72,47.12c-1.47,1.5-3.09,1.32-4.8,1.32H100.58c-8.14,0-10,1.75-10.68,9.91a35.3,35.3,0,0,1-34,32.94c-6.17.27-8.82,3-8.83,9.11,0,22.69-.08,45.38,0,68.07a177.68,177.68,0,0,0,12.81,66c1,2.5.66,3.93-1.21,5.75-5.72,5.53-11.23,11.27-17.14,17.24a193.79,193.79,0,0,1-13-34.59A208.26,208.26,0,0,1,21,167.1q-.06-70.5-.07-141c0-2.73.41-3.82,3.57-3.81q107.73.15,215.46.07ZM54.92,77.87a22.05,22.05,0,1,0,.48-44.1,22.12,22.12,0,0,0-22.14,22A21.9,21.9,0,0,0,54.92,77.87Z"/><path class="cls-4" d="M327.5,103.64c0,11.38.07,21.69,0,32-.12,15.08.43,30.16-.54,45.23C324.6,217.2,313.6,250.69,293.57,281c-28.2,42.7-67,71.29-116.14,85.86a11,11,0,0,1-6.53-.06,207.3,207.3,0,0,1-85.68-49.1c-1.93-1.82-2.31-2.79-.14-4.79,4.77-4.38,9.34-9,13.75-13.74,1.9-2,2.88-1.94,4.88,0A180.08,180.08,0,0,0,170,339.26a11.67,11.67,0,0,0,8.31.07q99-36.78,120.26-140.16c3.28-16,3-32.22,2.87-48.42,0-6.11,0-12.22,0-18.33,0-1.34-.1-2.61,1.06-3.76C310.61,120.6,318.68,112.48,327.5,103.64Z"/><path class="cls-5" d="M286.15,145.53c1.29,28.74-.52,56.79-11.56,83.55Q246.27,297.75,176.76,324a6.63,6.63,0,0,1-5,0A168.68,168.68,0,0,1,114,288.33c-1.78-1.67-1.89-2.61,0-4.23a64,64,0,0,0,7.11-7.15c1.94-2.34,3.09-1.74,4.91.14,6,6.2,12.11,12.22,18.21,18.29,4.05,4,6.67,4.42,11.66,1.74q16.6-8.91,33.18-17.88c6.63-3.6,7.32-8.65,2-14.07-3.59-3.64-7.2-7.27-10.85-10.84-1.1-1.08-1.68-1.74-.21-3.21q52.73-52.55,105.34-105.2A3.81,3.81,0,0,1,286.15,145.53Z"/><path class="cls-5" d="M202,64.53a24.81,24.81,0,0,0-2.94,2.21Q148.8,117,98.64,167.27c-2.37,2.38-3.56,2.32-5.69-.07-3.22-3.63-6.77-7-10.28-10.34-4.78-4.58-10-3.79-13.18,2-2.24,4-4.4,8.07-6.6,12.1a2.35,2.35,0,0,1-.28.33c-1-.53-.51-1.51-.51-2.22-.05-20.07,0-40.14-.07-60.21,0-1.92.17-2.94,2.56-3.51C85.67,100.27,98.93,87.22,104,66c.37-1.58.71-2.63,2.78-2.62q47.28.11,94.57,0Z"/><path class="cls-6" d="M174.21,270.19l-20.66,11.07c-2.08,1.11-2.93-.75-4-1.79q-21.07-21-42.08-42c-12.78-12.78-25.52-25.62-38.4-38.3-2.06-2-2.34-3.57-.92-6.06,3.16-5.51,6.06-11.17,9-16.81.91-1.76,1.61-2.1,3.19-.52Q127,222.5,173.67,269.17A5.63,5.63,0,0,1,174.21,270.19Z"/><path class="cls-7" d="M64.16,312.25c-.81-.73-1.47-1.28-2.07-1.88-8-8-16-16.09-24.1-24-1.78-1.74-1.74-2.79,0-4.47q7.8-7.53,15.33-15.33c1.46-1.52,2.34-1.55,3.84,0q12.19,12.39,24.58,24.59c1.46,1.45,1.62,2.41.06,3.93-5.37,5.21-10.6,10.55-15.9,15.82A20.11,20.11,0,0,1,64.16,312.25Z"/><path class="cls-8" d="M112.28,263.69c-.08,1.16-.85,1.67-1.45,2.27-4.92,4.94-9.9,9.82-14.75,14.82-1.37,1.41-2.22,1.39-3.6,0Q80.16,268.3,67.66,256c-1.61-1.59-1.24-2.54.17-3.91,5-4.87,9.9-9.82,14.8-14.78,1.07-1.09,1.84-1.76,3.28-.3,8.39,8.51,16.87,16.92,25.31,25.38C111.64,262.8,112,263.32,112.28,263.69Z"/><path class="cls-9" d="M158.79,232.5,115.29,189c.28-.85,1.17-.4,1.81-.39q19.23.42,38.44.92c1.53,0,3.3-.41,3.28,2.25C158.75,205.54,158.79,219.3,158.79,232.5Z"/><path class="cls-10" d="M14.73,313.62c.27-7.33,3.87-12.77,9-17.47,1.35-1.23,2.14-.61,3.1.36l25.07,25.08c.81.8,1.64,1.5.5,2.78-5.19,5.85-11.2,9.82-19.49,8.8S19.23,327.72,16.3,320.1A50.17,50.17,0,0,1,14.73,313.62Z"/><path class="cls-11" d="M308.33,47c0,4.34-3,7.45-7.16,7.46s-7.35-3.37-7.22-7.81a7,7,0,0,1,7.39-7.16C305.6,39.6,308.38,42.58,308.33,47Z"/><path class="cls-12" d="M54.92,77.87A21.9,21.9,0,0,1,33.26,55.82a22,22,0,1,1,44,.29A21.9,21.9,0,0,1,54.92,77.87Zm7.28-22a6.95,6.95,0,1,0-13.89,0,6.95,6.95,0,1,0,13.89,0Z"/><path class="cls-13" d="M62.2,55.86a6.95,6.95,0,1,1-13.89,0,6.95,6.95,0,1,1,13.89,0Z"/></g></g></svg>